<mxfile host="Electron" modified="2023-12-27T20:44:31.198Z" agent="Mozilla/5.0 (Windows NT 10.0; Win64; x64) AppleWebKit/537.36 (KHTML, like Gecko) draw.io/22.1.2 Chrome/114.0.5735.289 Electron/25.9.4 Safari/537.36" etag="sN5n0bfkloQRn99npx9w" version="22.1.2" type="device">
  <diagram name="Page-1" id="pq0y2L9d5JLGlG0ghc40">
    <mxGraphModel dx="1036" dy="614" grid="1" gridSize="10" guides="1" tooltips="1" connect="1" arrows="1" fold="1" page="1" pageScale="1" pageWidth="850" pageHeight="1100" math="0" shadow="0">
      <root>
        <mxCell id="0" />
        <mxCell id="1" parent="0" />
        <mxCell id="T3AyS3uvBpFW_vRgurVi-3" value="&lt;span style=&quot;background-color: rgb(255, 244, 195);&quot;&gt;Exercice 1&lt;/span&gt;" style="shape=umlFrame;whiteSpace=wrap;html=1;pointerEvents=0;" vertex="1" parent="1">
          <mxGeometry x="270" y="50" width="590" height="530" as="geometry" />
        </mxCell>
        <mxCell id="T3AyS3uvBpFW_vRgurVi-4" value="Client" style="shape=umlActor;verticalLabelPosition=bottom;verticalAlign=top;html=1;" vertex="1" parent="1">
          <mxGeometry x="160" y="140" width="30" height="60" as="geometry" />
        </mxCell>
        <mxCell id="T3AyS3uvBpFW_vRgurVi-5" value="recue" style="ellipse;whiteSpace=wrap;html=1;" vertex="1" parent="1">
          <mxGeometry x="340" y="160" width="100" height="50" as="geometry" />
        </mxCell>
        <mxCell id="T3AyS3uvBpFW_vRgurVi-6" value="retrait" style="ellipse;whiteSpace=wrap;html=1;" vertex="1" parent="1">
          <mxGeometry x="480" y="240" width="100" height="50" as="geometry" />
        </mxCell>
        <mxCell id="T3AyS3uvBpFW_vRgurVi-7" value="Concultation" style="ellipse;whiteSpace=wrap;html=1;" vertex="1" parent="1">
          <mxGeometry x="470" y="470" width="100" height="50" as="geometry" />
        </mxCell>
        <mxCell id="T3AyS3uvBpFW_vRgurVi-8" value="Rapide" style="ellipse;whiteSpace=wrap;html=1;" vertex="1" parent="1">
          <mxGeometry x="560" y="90" width="100" height="50" as="geometry" />
        </mxCell>
        <mxCell id="T3AyS3uvBpFW_vRgurVi-9" value="Normal" style="ellipse;whiteSpace=wrap;html=1;" vertex="1" parent="1">
          <mxGeometry x="650" y="145" width="100" height="50" as="geometry" />
        </mxCell>
        <mxCell id="T3AyS3uvBpFW_vRgurVi-10" value="Authen" style="ellipse;whiteSpace=wrap;html=1;" vertex="1" parent="1">
          <mxGeometry x="530" y="350" width="100" height="50" as="geometry" />
        </mxCell>
        <mxCell id="T3AyS3uvBpFW_vRgurVi-12" value="extends" style="endArrow=open;endSize=12;dashed=1;html=1;rounded=0;entryX=0;entryY=0;entryDx=0;entryDy=0;" edge="1" parent="1" target="T3AyS3uvBpFW_vRgurVi-6">
          <mxGeometry width="160" relative="1" as="geometry">
            <mxPoint x="440" y="180" as="sourcePoint" />
            <mxPoint x="600" y="180" as="targetPoint" />
          </mxGeometry>
        </mxCell>
        <mxCell id="T3AyS3uvBpFW_vRgurVi-13" value="extends" style="endArrow=open;endSize=12;dashed=1;html=1;rounded=0;entryX=0;entryY=0;entryDx=0;entryDy=0;" edge="1" parent="1" target="T3AyS3uvBpFW_vRgurVi-7">
          <mxGeometry width="160" relative="1" as="geometry">
            <mxPoint x="400" y="210" as="sourcePoint" />
            <mxPoint x="560" y="210" as="targetPoint" />
          </mxGeometry>
        </mxCell>
        <mxCell id="T3AyS3uvBpFW_vRgurVi-14" value="include" style="endArrow=open;endSize=12;dashed=1;html=1;rounded=0;entryX=0.224;entryY=0.156;entryDx=0;entryDy=0;entryPerimeter=0;exitX=1;exitY=0.5;exitDx=0;exitDy=0;" edge="1" parent="1" source="T3AyS3uvBpFW_vRgurVi-6" target="T3AyS3uvBpFW_vRgurVi-10">
          <mxGeometry width="160" relative="1" as="geometry">
            <mxPoint x="600" y="250" as="sourcePoint" />
            <mxPoint x="760" y="250" as="targetPoint" />
          </mxGeometry>
        </mxCell>
        <mxCell id="T3AyS3uvBpFW_vRgurVi-15" value="include" style="endArrow=open;endSize=12;dashed=1;html=1;rounded=0;entryX=0;entryY=1;entryDx=0;entryDy=0;exitX=1;exitY=0.5;exitDx=0;exitDy=0;" edge="1" parent="1" source="T3AyS3uvBpFW_vRgurVi-7" target="T3AyS3uvBpFW_vRgurVi-10">
          <mxGeometry width="160" relative="1" as="geometry">
            <mxPoint x="610" y="360" as="sourcePoint" />
            <mxPoint x="770" y="360" as="targetPoint" />
          </mxGeometry>
        </mxCell>
        <mxCell id="T3AyS3uvBpFW_vRgurVi-16" value="System Central" style="shape=umlActor;verticalLabelPosition=bottom;verticalAlign=top;html=1;" vertex="1" parent="1">
          <mxGeometry x="900" y="280" width="30" height="60" as="geometry" />
        </mxCell>
        <mxCell id="T3AyS3uvBpFW_vRgurVi-17" value="extend" style="endArrow=open;endSize=12;dashed=1;html=1;rounded=0;entryX=0.5;entryY=0;entryDx=0;entryDy=0;" edge="1" parent="1" target="T3AyS3uvBpFW_vRgurVi-6">
          <mxGeometry width="160" relative="1" as="geometry">
            <mxPoint x="570" y="130" as="sourcePoint" />
            <mxPoint x="730" y="130" as="targetPoint" />
          </mxGeometry>
        </mxCell>
        <mxCell id="T3AyS3uvBpFW_vRgurVi-24" value="condition:&amp;nbsp;&lt;br&gt;Si le Montant est important" style="text;html=1;strokeColor=none;fillColor=none;align=left;verticalAlign=middle;whiteSpace=wrap;rounded=0;" vertex="1" parent="1">
          <mxGeometry x="700" y="240" width="160" height="30" as="geometry" />
        </mxCell>
        <mxCell id="T3AyS3uvBpFW_vRgurVi-25" value="" style="endArrow=classic;html=1;rounded=0;entryX=0.213;entryY=0.65;entryDx=0;entryDy=0;entryPerimeter=0;" edge="1" parent="1" target="T3AyS3uvBpFW_vRgurVi-16">
          <mxGeometry width="50" height="50" relative="1" as="geometry">
            <mxPoint x="580" y="270" as="sourcePoint" />
            <mxPoint x="630" y="220" as="targetPoint" />
          </mxGeometry>
        </mxCell>
        <mxCell id="T3AyS3uvBpFW_vRgurVi-26" value="" style="endArrow=classic;html=1;rounded=0;entryX=0;entryY=0.5;entryDx=0;entryDy=0;" edge="1" parent="1" target="T3AyS3uvBpFW_vRgurVi-5">
          <mxGeometry width="50" height="50" relative="1" as="geometry">
            <mxPoint x="190" y="180" as="sourcePoint" />
            <mxPoint x="516" y="229" as="targetPoint" />
          </mxGeometry>
        </mxCell>
        <mxCell id="T3AyS3uvBpFW_vRgurVi-27" value="" style="endArrow=classic;html=1;rounded=0;entryX=0;entryY=0.5;entryDx=0;entryDy=0;" edge="1" parent="1" target="T3AyS3uvBpFW_vRgurVi-7">
          <mxGeometry width="50" height="50" relative="1" as="geometry">
            <mxPoint x="190" y="210" as="sourcePoint" />
            <mxPoint x="340" y="215" as="targetPoint" />
          </mxGeometry>
        </mxCell>
        <mxCell id="T3AyS3uvBpFW_vRgurVi-28" value="&lt;span style=&quot;background-color: rgb(255, 244, 195);&quot;&gt;Exercice 2&lt;/span&gt;" style="shape=umlFrame;whiteSpace=wrap;html=1;pointerEvents=0;" vertex="1" parent="1">
          <mxGeometry x="260" y="800" width="780" height="630" as="geometry" />
        </mxCell>
        <mxCell id="T3AyS3uvBpFW_vRgurVi-29" value="Client" style="swimlane;fontStyle=0;childLayout=stackLayout;horizontal=1;startSize=26;fillColor=none;horizontalStack=0;resizeParent=1;resizeParentMax=0;resizeLast=0;collapsible=1;marginBottom=0;whiteSpace=wrap;html=1;" vertex="1" parent="1">
          <mxGeometry x="400" y="1152" width="140" height="104" as="geometry" />
        </mxCell>
        <mxCell id="T3AyS3uvBpFW_vRgurVi-30" value="- nom: String" style="text;strokeColor=none;fillColor=none;align=left;verticalAlign=top;spacingLeft=4;spacingRight=4;overflow=hidden;rotatable=0;points=[[0,0.5],[1,0.5]];portConstraint=eastwest;whiteSpace=wrap;html=1;" vertex="1" parent="T3AyS3uvBpFW_vRgurVi-29">
          <mxGeometry y="26" width="140" height="26" as="geometry" />
        </mxCell>
        <mxCell id="T3AyS3uvBpFW_vRgurVi-31" value="- prenom: String" style="text;strokeColor=none;fillColor=none;align=left;verticalAlign=top;spacingLeft=4;spacingRight=4;overflow=hidden;rotatable=0;points=[[0,0.5],[1,0.5]];portConstraint=eastwest;whiteSpace=wrap;html=1;" vertex="1" parent="T3AyS3uvBpFW_vRgurVi-29">
          <mxGeometry y="52" width="140" height="26" as="geometry" />
        </mxCell>
        <mxCell id="T3AyS3uvBpFW_vRgurVi-32" value="- addr: String" style="text;strokeColor=none;fillColor=none;align=left;verticalAlign=top;spacingLeft=4;spacingRight=4;overflow=hidden;rotatable=0;points=[[0,0.5],[1,0.5]];portConstraint=eastwest;whiteSpace=wrap;html=1;" vertex="1" parent="T3AyS3uvBpFW_vRgurVi-29">
          <mxGeometry y="78" width="140" height="26" as="geometry" />
        </mxCell>
        <mxCell id="T3AyS3uvBpFW_vRgurVi-33" value="produit" style="swimlane;fontStyle=0;childLayout=stackLayout;horizontal=1;startSize=26;fillColor=none;horizontalStack=0;resizeParent=1;resizeParentMax=0;resizeLast=0;collapsible=1;marginBottom=0;whiteSpace=wrap;html=1;" vertex="1" parent="1">
          <mxGeometry x="697" y="816" width="163" height="208" as="geometry" />
        </mxCell>
        <mxCell id="T3AyS3uvBpFW_vRgurVi-34" value="- code: String" style="text;strokeColor=none;fillColor=none;align=left;verticalAlign=top;spacingLeft=4;spacingRight=4;overflow=hidden;rotatable=0;points=[[0,0.5],[1,0.5]];portConstraint=eastwest;whiteSpace=wrap;html=1;" vertex="1" parent="T3AyS3uvBpFW_vRgurVi-33">
          <mxGeometry y="26" width="163" height="26" as="geometry" />
        </mxCell>
        <mxCell id="T3AyS3uvBpFW_vRgurVi-35" value="- libele: String" style="text;strokeColor=none;fillColor=none;align=left;verticalAlign=top;spacingLeft=4;spacingRight=4;overflow=hidden;rotatable=0;points=[[0,0.5],[1,0.5]];portConstraint=eastwest;whiteSpace=wrap;html=1;" vertex="1" parent="T3AyS3uvBpFW_vRgurVi-33">
          <mxGeometry y="52" width="163" height="26" as="geometry" />
        </mxCell>
        <mxCell id="T3AyS3uvBpFW_vRgurVi-36" value="- pHT: float" style="text;strokeColor=none;fillColor=none;align=left;verticalAlign=top;spacingLeft=4;spacingRight=4;overflow=hidden;rotatable=0;points=[[0,0.5],[1,0.5]];portConstraint=eastwest;whiteSpace=wrap;html=1;" vertex="1" parent="T3AyS3uvBpFW_vRgurVi-33">
          <mxGeometry y="78" width="163" height="26" as="geometry" />
        </mxCell>
        <mxCell id="T3AyS3uvBpFW_vRgurVi-48" value="- type: String" style="text;strokeColor=none;fillColor=none;align=left;verticalAlign=top;spacingLeft=4;spacingRight=4;overflow=hidden;rotatable=0;points=[[0,0.5],[1,0.5]];portConstraint=eastwest;whiteSpace=wrap;html=1;" vertex="1" parent="T3AyS3uvBpFW_vRgurVi-33">
          <mxGeometry y="104" width="163" height="26" as="geometry" />
        </mxCell>
        <mxCell id="T3AyS3uvBpFW_vRgurVi-47" value="- pHT: float" style="text;strokeColor=none;fillColor=none;align=left;verticalAlign=top;spacingLeft=4;spacingRight=4;overflow=hidden;rotatable=0;points=[[0,0.5],[1,0.5]];portConstraint=eastwest;whiteSpace=wrap;html=1;" vertex="1" parent="T3AyS3uvBpFW_vRgurVi-33">
          <mxGeometry y="130" width="163" height="26" as="geometry" />
        </mxCell>
        <mxCell id="T3AyS3uvBpFW_vRgurVi-45" value="- tva: float" style="text;strokeColor=none;fillColor=none;align=left;verticalAlign=top;spacingLeft=4;spacingRight=4;overflow=hidden;rotatable=0;points=[[0,0.5],[1,0.5]];portConstraint=eastwest;whiteSpace=wrap;html=1;" vertex="1" parent="T3AyS3uvBpFW_vRgurVi-33">
          <mxGeometry y="156" width="163" height="26" as="geometry" />
        </mxCell>
        <mxCell id="T3AyS3uvBpFW_vRgurVi-46" value="+ calculeTTC(pht, tva):float float" style="text;strokeColor=none;fillColor=none;align=left;verticalAlign=top;spacingLeft=4;spacingRight=4;overflow=hidden;rotatable=0;points=[[0,0.5],[1,0.5]];portConstraint=eastwest;whiteSpace=wrap;html=1;" vertex="1" parent="T3AyS3uvBpFW_vRgurVi-33">
          <mxGeometry y="182" width="163" height="26" as="geometry" />
        </mxCell>
        <mxCell id="T3AyS3uvBpFW_vRgurVi-37" value="Facture" style="swimlane;fontStyle=0;childLayout=stackLayout;horizontal=1;startSize=26;fillColor=none;horizontalStack=0;resizeParent=1;resizeParentMax=0;resizeLast=0;collapsible=1;marginBottom=0;whiteSpace=wrap;html=1;" vertex="1" parent="1">
          <mxGeometry x="727" y="1140" width="203" height="234" as="geometry" />
        </mxCell>
        <mxCell id="T3AyS3uvBpFW_vRgurVi-38" value="- num: int" style="text;strokeColor=none;fillColor=none;align=left;verticalAlign=top;spacingLeft=4;spacingRight=4;overflow=hidden;rotatable=0;points=[[0,0.5],[1,0.5]];portConstraint=eastwest;whiteSpace=wrap;html=1;" vertex="1" parent="T3AyS3uvBpFW_vRgurVi-37">
          <mxGeometry y="26" width="203" height="26" as="geometry" />
        </mxCell>
        <mxCell id="T3AyS3uvBpFW_vRgurVi-39" value="- date: Date" style="text;strokeColor=none;fillColor=none;align=left;verticalAlign=top;spacingLeft=4;spacingRight=4;overflow=hidden;rotatable=0;points=[[0,0.5],[1,0.5]];portConstraint=eastwest;whiteSpace=wrap;html=1;" vertex="1" parent="T3AyS3uvBpFW_vRgurVi-37">
          <mxGeometry y="52" width="203" height="26" as="geometry" />
        </mxCell>
        <mxCell id="T3AyS3uvBpFW_vRgurVi-43" value="- nbprod: int" style="text;strokeColor=none;fillColor=none;align=left;verticalAlign=top;spacingLeft=4;spacingRight=4;overflow=hidden;rotatable=0;points=[[0,0.5],[1,0.5]];portConstraint=eastwest;whiteSpace=wrap;html=1;" vertex="1" parent="T3AyS3uvBpFW_vRgurVi-37">
          <mxGeometry y="78" width="203" height="26" as="geometry" />
        </mxCell>
        <mxCell id="T3AyS3uvBpFW_vRgurVi-44" value="- qteprod: int" style="text;strokeColor=none;fillColor=none;align=left;verticalAlign=top;spacingLeft=4;spacingRight=4;overflow=hidden;rotatable=0;points=[[0,0.5],[1,0.5]];portConstraint=eastwest;whiteSpace=wrap;html=1;" vertex="1" parent="T3AyS3uvBpFW_vRgurVi-37">
          <mxGeometry y="104" width="203" height="26" as="geometry" />
        </mxCell>
        <mxCell id="T3AyS3uvBpFW_vRgurVi-58" value="+ montantHT() : float" style="text;strokeColor=none;fillColor=none;align=left;verticalAlign=top;spacingLeft=4;spacingRight=4;overflow=hidden;rotatable=0;points=[[0,0.5],[1,0.5]];portConstraint=eastwest;whiteSpace=wrap;html=1;" vertex="1" parent="T3AyS3uvBpFW_vRgurVi-37">
          <mxGeometry y="130" width="203" height="26" as="geometry" />
        </mxCell>
        <mxCell id="T3AyS3uvBpFW_vRgurVi-60" value="+ montantTTC(): float" style="text;strokeColor=none;fillColor=none;align=left;verticalAlign=top;spacingLeft=4;spacingRight=4;overflow=hidden;rotatable=0;points=[[0,0.5],[1,0.5]];portConstraint=eastwest;whiteSpace=wrap;html=1;" vertex="1" parent="T3AyS3uvBpFW_vRgurVi-37">
          <mxGeometry y="156" width="203" height="26" as="geometry" />
        </mxCell>
        <mxCell id="T3AyS3uvBpFW_vRgurVi-59" value="+ creat ajouter ( nbprod,qte )" style="text;strokeColor=none;fillColor=none;align=left;verticalAlign=top;spacingLeft=4;spacingRight=4;overflow=hidden;rotatable=0;points=[[0,0.5],[1,0.5]];portConstraint=eastwest;whiteSpace=wrap;html=1;" vertex="1" parent="T3AyS3uvBpFW_vRgurVi-37">
          <mxGeometry y="182" width="203" height="26" as="geometry" />
        </mxCell>
        <mxCell id="T3AyS3uvBpFW_vRgurVi-57" value="- destoy supp(nbprod , qte)" style="text;strokeColor=none;fillColor=none;align=left;verticalAlign=top;spacingLeft=4;spacingRight=4;overflow=hidden;rotatable=0;points=[[0,0.5],[1,0.5]];portConstraint=eastwest;whiteSpace=wrap;html=1;" vertex="1" parent="T3AyS3uvBpFW_vRgurVi-37">
          <mxGeometry y="208" width="203" height="26" as="geometry" />
        </mxCell>
        <mxCell id="T3AyS3uvBpFW_vRgurVi-41" value="" style="endArrow=none;html=1;rounded=0;entryX=0.5;entryY=0;entryDx=0;entryDy=0;exitX=0.606;exitY=1.085;exitDx=0;exitDy=0;exitPerimeter=0;" edge="1" parent="1" source="T3AyS3uvBpFW_vRgurVi-46" target="T3AyS3uvBpFW_vRgurVi-37">
          <mxGeometry width="50" height="50" relative="1" as="geometry">
            <mxPoint x="770" y="1020" as="sourcePoint" />
            <mxPoint x="590" y="900" as="targetPoint" />
          </mxGeometry>
        </mxCell>
        <mxCell id="T3AyS3uvBpFW_vRgurVi-42" value="" style="endArrow=none;html=1;rounded=0;entryX=-0.011;entryY=-0.069;entryDx=0;entryDy=0;exitX=1;exitY=0.5;exitDx=0;exitDy=0;entryPerimeter=0;" edge="1" parent="1" source="T3AyS3uvBpFW_vRgurVi-29" target="T3AyS3uvBpFW_vRgurVi-39">
          <mxGeometry width="50" height="50" relative="1" as="geometry">
            <mxPoint x="640" y="970" as="sourcePoint" />
            <mxPoint x="640" y="1148" as="targetPoint" />
          </mxGeometry>
        </mxCell>
        <mxCell id="T3AyS3uvBpFW_vRgurVi-52" value="&lt;span style=&quot;font-size: 14px;&quot;&gt;1,1&lt;/span&gt;" style="text;align=center;fontStyle=1;verticalAlign=middle;spacingLeft=3;spacingRight=3;strokeColor=none;rotatable=0;points=[[0,0.5],[1,0.5]];portConstraint=eastwest;html=1;" vertex="1" parent="1">
          <mxGeometry x="545" y="1209" width="30" height="26" as="geometry" />
        </mxCell>
        <mxCell id="T3AyS3uvBpFW_vRgurVi-53" value="&lt;span style=&quot;font-size: 14px;&quot;&gt;1,N&lt;/span&gt;" style="text;align=center;fontStyle=1;verticalAlign=middle;spacingLeft=3;spacingRight=3;strokeColor=none;rotatable=0;points=[[0,0.5],[1,0.5]];portConstraint=eastwest;html=1;" vertex="1" parent="1">
          <mxGeometry x="679" y="1207" width="40" height="26" as="geometry" />
        </mxCell>
        <mxCell id="T3AyS3uvBpFW_vRgurVi-55" value="&lt;span style=&quot;font-size: 14px;&quot;&gt;1,N&lt;/span&gt;" style="text;align=center;fontStyle=1;verticalAlign=middle;spacingLeft=3;spacingRight=3;strokeColor=none;rotatable=0;points=[[0,0.5],[1,0.5]];portConstraint=eastwest;html=1;" vertex="1" parent="1">
          <mxGeometry x="803" y="1030" width="40" height="26" as="geometry" />
        </mxCell>
        <mxCell id="T3AyS3uvBpFW_vRgurVi-56" value="&lt;span style=&quot;font-size: 14px;&quot;&gt;1,1&lt;/span&gt;" style="text;align=center;fontStyle=1;verticalAlign=middle;spacingLeft=3;spacingRight=3;strokeColor=none;rotatable=0;points=[[0,0.5],[1,0.5]];portConstraint=eastwest;html=1;" vertex="1" parent="1">
          <mxGeometry x="811" y="1118" width="30" height="26" as="geometry" />
        </mxCell>
      </root>
    </mxGraphModel>
  </diagram>
</mxfile>
